<svg width="100" height="100" viewBox="0 0 100 100" fill="none" xmlns="http://www.w3.org/2000/svg">
<path d="M49.9997 8.33301C41.7588 8.33301 33.703 10.7767 26.8509 15.3551C19.9989 19.9335 14.6584 26.4409 11.5047 34.0545C8.35106 41.6681 7.52592 50.0459 9.13364 58.1284C10.7414 66.211 14.7097 73.6353 20.5369 79.4625C26.3641 85.2897 33.7884 89.258 41.8709 90.8657C49.9535 92.4735 58.3313 91.6483 65.9448 88.4947C73.5584 85.341 80.0659 80.0005 84.6443 73.1484C89.2227 66.2964 91.6664 58.2406 91.6664 49.9997C88.7706 50.8913 85.6865 50.9767 82.7458 50.2466C79.8051 49.5166 77.1191 47.9986 74.9766 45.8561C72.8341 43.7136 71.3162 41.0276 70.5861 38.0869C69.856 35.1462 69.9414 32.0621 70.833 29.1663C67.9372 30.058 64.8532 30.1434 61.9125 29.4133C58.9718 28.6832 56.2857 27.1653 54.1432 25.0228C52.0007 22.8803 50.4828 20.1943 49.7527 17.2536C49.0227 14.3129 49.108 11.2288 49.9997 8.33301Z" stroke="black" stroke-width="2" stroke-linecap="round" stroke-linejoin="round"/>
<path d="M35.417 35.417V35.4389" stroke="black" stroke-width="2" stroke-linecap="round" stroke-linejoin="round"/>
<path d="M66.667 64.583V64.605" stroke="black" stroke-width="2" stroke-linecap="round" stroke-linejoin="round"/>
<path d="M50 50V50.022" stroke="black" stroke-width="2" stroke-linecap="round" stroke-linejoin="round"/>
<path d="M45.833 70.833V70.855" stroke="black" stroke-width="2" stroke-linecap="round" stroke-linejoin="round"/>
<path d="M29.167 58.333V58.355" stroke="black" stroke-width="2" stroke-linecap="round" stroke-linejoin="round"/>
</svg>
